<?xml version="1.0" encoding="UTF-8" standalone="no"?>
<svg
   xmlns:dc="http://purl.org/dc/elements/1.1/"
   xmlns:cc="http://creativecommons.org/ns#"
   xmlns:rdf="http://www.w3.org/1999/02/22-rdf-syntax-ns#"
   xmlns:svg="http://www.w3.org/2000/svg"
   xmlns="http://www.w3.org/2000/svg"
   xmlns:sodipodi="http://sodipodi.sourceforge.net/DTD/sodipodi-0.dtd"
   xmlns:inkscape="http://www.inkscape.org/namespaces/inkscape"
   version="1.1"
   id="svg2"
   viewBox="0 0 304.80408 248.61776"
   height="68.511729"
   width="86.022482"
   inkscape:version="0.91 r13725"
   sodipodi:docname="drawing.svg">
  <sodipodi:namedview
     pagecolor="#ffffff"
     bordercolor="#666666"
     borderopacity="1"
     objecttolerance="10"
     gridtolerance="10"
     guidetolerance="10"
     inkscape:pageopacity="0"
     inkscape:pageshadow="2"
     inkscape:window-width="1440"
     inkscape:window-height="783"
     id="namedview10"
     showgrid="false"
     fit-margin-top="0"
     fit-margin-left="0"
     fit-margin-right="0"
     fit-margin-bottom="0"
     inkscape:zoom="0.2296705"
     inkscape:cx="-365.29772"
     inkscape:cy="-13.736021"
     inkscape:window-x="0"
     inkscape:window-y="0"
     inkscape:window-maximized="1"
     inkscape:current-layer="svg2" />
  <defs
     id="defs4" />
  <metadata
     id="metadata7">
    <rdf:RDF>
      <cc:Work
         rdf:about="">
        <dc:format>image/svg+xml</dc:format>
        <dc:type
           rdf:resource="http://purl.org/dc/dcmitype/StillImage" />
        <dc:title></dc:title>
      </cc:Work>
    </rdf:RDF>
  </metadata>
  <g
     id="layer1"
     transform="translate(-220.04352,-441.8622)">
    <path
       id="path3345"
       style="fill:none;fill-rule:evenodd;stroke:#000000;stroke-width:1px;stroke-linecap:butt;stroke-linejoin:miter;stroke-opacity:1"
       d="m 298.57143,518.07649 c 21.23066,-16.77471 10.92488,-50.91307 30.71428,-70 l 105,0 c 24.30002,12.82319 12.43135,44.25774 30,62.14286 m -188.57142,35 c -20.12712,-7.44956 -43.16531,-14.11292 -52.14286,-36.42857 l -2.14286,7.14286 -4.28571,0.71428 c 16.05825,29.20579 34.26236,32.66112 52.14285,40 m 26.42858,-37.14286 c 23.07422,-15.81424 7.36161,-72.60971 30.71428,-77.14286 l 112.85714,0 c 22.58586,11.7767 7.65831,55.30285 29.28572,69.28572 m 57.71806,105.33853 c 14.42147,68.79913 -63.3524,72.99351 -140.62042,72.99351 -77.26802,0 -149.3267,-0.55781 -138.18169,-69.96305 10.71429,-66.72294 60.91367,-139.59539 138.18169,-139.59539 77.26802,0 126.33471,68.41342 140.62042,136.56493 z" />
  </g>
</svg>
